<svg id="Layer_1" data-name="Layer 1" xmlns="http://www.w3.org/2000/svg" viewBox="0 0 595.61 595.61"><defs><style>.cls-1{fill:#fff;}</style></defs><title>mt icons</title><path class="cls-1" d="M517.12,148.39a46,46,0,0,0-35.6-16.5H184.22a45,45,0,0,0-23.6,6.7l-15.2-53.1A20.22,20.22,0,0,0,126,70.79H58.82a15.3,15.3,0,0,0-15.3,15.3v1.6A15.3,15.3,0,0,0,58.82,103h57.8l29.5,104.3,40.6,143.9a53.1,53.1,0,0,0,9.4,104.5A51.92,51.92,0,1,0,297,472.89a51.17,51.17,0,0,0-2.9-17.1h60.8a51.95,51.95,0,1,0,101,17.1c0-28.9-24-52-52.8-52H200c-9.9,0-18.3-7.7-18.7-17.5a18.18,18.18,0,0,1,18.2-18.9h242.3a45,45,0,0,0,43.6-34.1l40.4-162.6A44.7,44.7,0,0,0,517.12,148.39ZM404,455.69a17.1,17.1,0,1,1-17.1,17.1A17.16,17.16,0,0,1,404,455.69Zm-158.9,0a17.1,17.1,0,1,1-17.1,17.1A17.16,17.16,0,0,1,245.12,455.69Zm-62.8-248.6-7.8-27.5a9.59,9.59,0,0,1,1.7-8.8,9.85,9.85,0,0,1,8-4h32.6l8.9,40.4h-43.4v-.1Zm9.8,34.8h41.2l8.2,37.4h-38.9ZM230,349.49a10.05,10.05,0,0,1-9.7-7.4l-7.9-28h36.7l7.8,35.3H230v.1Zm87.1,0h-24.6l-7.8-35.3H317v35.3Zm0-70.2h-40l-8.2-37.4h48.2Zm0-72.2h-55.8l-8.9-40.4h64.7Zm62.4,142.4H352v-35.3h34.9Zm14.8-70.2H352v-37.4h50.2ZM352,207.09v-40.4h66l-8.5,40.4Zm99.7,134.8a10.07,10.07,0,0,1-9.8,7.7h-26.8l7.5-35.3h36Zm15.5-62.6h-37.3l7.9-37.4h38.7ZM492,179.19l-6.9,27.8h-40l8.5-40.4h28.6a9.59,9.59,0,0,1,7.9,3.9A9.71,9.71,0,0,1,492,179.19Z"/></svg>