<svg id="Layer_1" data-name="Layer 1" xmlns="http://www.w3.org/2000/svg" viewBox="0 0 595.61 595.61"><defs><style>.cls-1{fill:#fff;}</style></defs><title>mt icons</title><path class="cls-1" d="M64.38,254a58.25,58.25,0,0,0,43.77,56.31V502.06H79a14.59,14.59,0,1,0,0,29.18H516.65a14.59,14.59,0,1,0,0-29.18H487.47V310.34A58.25,58.25,0,0,0,531.23,254V239.45H64.38Zm291.79,58.36A58.34,58.34,0,0,0,414.52,254a58.25,58.25,0,0,0,43.77,56.31V502.06H239.45V312.39A58.34,58.34,0,0,0,297.81,254,58.38,58.38,0,0,0,356.16,312.39Zm-131.3-2.05V502.06H137.32V310.34A58.25,58.25,0,0,0,181.09,254,58.25,58.25,0,0,0,224.86,310.34Zm248-202.2H122.73L64.38,224.86H531.23ZM187.65,140.57l-29.18,58.36a7.36,7.36,0,0,1-6.55,4,7.06,7.06,0,0,1-3.25-.77,7.27,7.27,0,0,1-3.25-9.77l29.18-58.36a7.29,7.29,0,0,1,13.05,6.5Zm58.36,0-29.18,58.36a7.36,7.36,0,0,1-6.55,4,7.06,7.06,0,0,1-3.25-.77,7.27,7.27,0,0,1-3.25-9.77L233,134.08a7.29,7.29,0,0,1,13.05,6.5Zm59.1,55.11a7.29,7.29,0,0,1-14.59,0V137.32a7.29,7.29,0,0,1,14.59,0Zm83.77,6.38a7.28,7.28,0,0,1-9.92-2.88L347,140.83a7.31,7.31,0,0,1,12.82-7l31.91,58.36A7.32,7.32,0,0,1,388.87,202.06Zm58.07.14a6.81,6.81,0,0,1-3.25.77,7.21,7.21,0,0,1-6.5-4L408,140.57a7.29,7.29,0,1,1,13.05-6.5l29.18,58.36A7.29,7.29,0,0,1,446.95,202.21ZM188.39,416.74V383.12a14.43,14.43,0,0,1-7.29-12.37,14.59,14.59,0,0,1,29.18,0A14.37,14.37,0,0,1,203,383.12v33.62a14.37,14.37,0,0,1,7.29,12.37,14.59,14.59,0,1,1-21.88-12.37ZM122.73,79a14.6,14.6,0,0,1,14.59-14.59h321a14.59,14.59,0,0,1,0,29.18h-321A14.6,14.6,0,0,1,122.73,79ZM320.09,390.5l-10.31-10.32L351,338.92l10.31,10.32Zm0,41.26-10.31-10.32,82.52-82.52,10.31,10.32Zm72.21-51.58,10.31,10.32-41.26,41.26L351,421.44Z"/></svg>