<svg id="Layer_1" data-name="Layer 1" xmlns="http://www.w3.org/2000/svg" viewBox="0 0 595.61 595.61"><defs><style>.cls-1{fill:#fff;}</style></defs><title>mt icons</title><path class="cls-1" d="M434.15,64.38H161.46A28.47,28.47,0,0,0,133,92.81V248.61A28.47,28.47,0,0,0,161.46,277h77.68a8,8,0,0,1,8,8V547.94a28.47,28.47,0,0,0,28.44,28.44H320a28.47,28.47,0,0,0,28.44-28.44V544a8,8,0,0,1,8-8h25.79a28.47,28.47,0,0,0,28.44-28.44V490.13a28.47,28.47,0,0,0-28.44-28.44H356.47a8,8,0,1,1,0-16.08h25.79a28.47,28.47,0,0,0,28.44-28.44V399.79a28.47,28.47,0,0,0-28.44-28.44H356.47a8,8,0,0,1-8-8V285.09a8,8,0,0,1,8-8h77.68a28.47,28.47,0,0,0,28.44-28.44V92.81A28.47,28.47,0,0,0,434.15,64.38ZM198.94,112.44H356.8a10.2,10.2,0,1,1,0,20.4H198.94a10.2,10.2,0,1,1,0-20.4ZM396.67,226.79H198.94a10.2,10.2,0,1,1,0-20.4H396.67a10.2,10.2,0,0,1,0,20.4Zm0-47H198.94a10.2,10.2,0,1,1,0-20.4H396.67a10.2,10.2,0,0,1,0,20.4Zm0-47h-3.82a10.2,10.2,0,0,1,0-20.4h3.82a10.2,10.2,0,0,1,0,20.4Z"/></svg>