<svg xmlns="http://www.w3.org/2000/svg" id="Layer_1" x="0" y="0" version="1.1" viewBox="0 0 524 524" xml:space="preserve" fill="#9279BA"><defs/><g id="XMLID_326_"><g id="XMLID_329_"><path id="XMLID_381_" d="M501 125H399v-17c0-29-24-53-53-53h-96c-30 0-54 24-54 53v17H95c-7 0-13 6-13 13s6 14 13 14h24v317c0 40 33 72 73 72h212c40 0 72-32 72-72V152h25c7 0 13-6 13-14s-6-13-13-13zm-278-17c0-15 12-26 27-26h96c14 0 26 11 26 26v17H223v-17zm226 361c0 25-20 45-45 45H192c-25 0-46-20-46-45V152h303v317z" class="st0"/><path id="XMLID_380_" d="M298 466c7 0 13-6 13-14V214c0-8-6-14-13-14s-14 6-14 14v238c0 8 6 14 14 14z" class="st0"/><path id="XMLID_379_" d="M210 451c7 0 13-6 13-14V228c0-7-6-13-13-13s-14 6-14 13v209c0 8 6 14 14 14z" class="st0"/><path id="XMLID_378_" d="M386 451c7 0 13-6 13-14V228c0-7-6-13-13-13s-14 6-14 13v209c0 8 6 14 14 14z" class="st0"/></g></g></svg>