<svg xmlns="http://www.w3.org/2000/svg" preserveAspectRatio="none" viewBox="0 0 152 199" fill="#9279BA"><defs/><path d="M132 80q1-3-1-5l-4-2H15q-3 0-5 2l-1 5 12 99q1 9 8 15t15 6h53q9 0 15-6 7-6 8-15l12-99M44 189q-4 0-8-3-3-3-4-8L21 85h99l-11 93q-1 5-4 8t-8 3H44zM128 36l3-3 1-4-2-5q-2-9-10-13-8-5-17-2L16 32l-8 4-5 7-3 8 1 8 1 5 3 4 3 1h1l119-33m-22-17q4-1 8 1t5 7L12 56q-1-4 1-8t6-5l87-24z"/><path d="M75 99l-1-3-3-1-3 1-2 3v74l2 3 3 1 3-1 1-3V99zM44 96l-3-1-3 2-1 3 6 73q0 2 2 3l2 1h1q2 0 3-2l1-3-6-73q0-2-2-3zM104 100l-1-3q-1-2-3-2l-3 1-2 3-5 73q-1 2 1 3l2 2h1l3-1 1-3 6-73zM75 2q-5-3-12-1L46 5q-6 2-9 8-3 5-2 12l2 7 3 4h4l37-10q2 0 3-2l1-5-2-7q-2-7-8-10m-8 9l3 1 2 3v2l-25 7-1-2 1-4 2-2 17-4 1-1z"/></svg>