<svg id="Layer_1" data-name="Layer 1" xmlns="http://www.w3.org/2000/svg" viewBox="0 0 595.61 595.61"><defs><style>.cls-1{fill:#131313;}</style></defs><title>mt icons</title><path class="cls-1" d="M554.43,209.22c-7.52-82.73-66.08-142.76-139.36-142.76-48.82,0-93.53,26.27-118.68,68.38-24.93-42.65-67.8-68.39-115.84-68.39-73.28,0-131.84,60-139.35,142.76-.59,3.65-3,22.89,4.38,54.25,10.68,45.24,35.34,86.39,71.29,119l179.4,162.8L478.75,382.44c36-32.59,60.62-73.73,71.29-119C557.45,232.1,555,212.87,554.43,209.22ZM198.78,146.45a79.32,79.32,0,0,0-79.23,79.23,9.9,9.9,0,1,1-19.81,0,99.15,99.15,0,0,1,99-99,9.9,9.9,0,1,1,0,19.81Z"/></svg>