<svg xmlns="http://www.w3.org/2000/svg" preserveAspectRatio="none" viewBox="0 0 31 30"><defs/><path fill="#9279BA" d="M0 26.43q0 .77.53 1.27l1.86 1.91q.54.53 1.32.53.76 0 1.27-.53l15.4-17.04-3.44-3.54L.53 25.11Q0 25.65 0 26.43M30.1 9.79q-.5-.06-.85.25-.81 0-1.43-.62-.5-.54-.58-1.85-.07-1.28-.34-1.55l-2.54-2.54Q22.42 1.54 20.58.8 16.73-.73 11.1.7l.05 1.1.73.04q.91.1 1.83.33 2.96.74 4.9 2.65l.44.77q.3.9-.4 1.58l-1 1.05 3.54 3.5.42-.44q.44-.45.59-.57.46-.5 1.38-.37 1 .14 1.82.99.59.55.73 1.14.13.55-.2.77-.18.26-.06.71.12.44.44.73l.58.62q.43.4.98.4.54 0 .93-.4l2.58-2.63q.4-.43.4-.97 0-.55-.38-.94l-.53-.58q-.31-.33-.78-.4z"/></svg>