<svg xmlns="http://www.w3.org/2000/svg" preserveAspectRatio="none" viewBox="0 0 31 30"><defs/><path fill="#D8B094" d="M3.7 30.15q.75 0 1.3-.55l15.4-17.05-3.45-3.5L.55 25.1Q0 25.65 0 26.45q0 .75.55 1.25l1.85 1.9q.55.55 1.3.55z"/><path fill="#9279BA" d="M31.8 11.7q0-.55-.4-.95l-.5-.55q-.35-.35-.8-.4-.5-.05-.85.25-.8 0-1.45-.65-.5-.5-.55-1.85-.1-1.25-.35-1.55l-2.55-2.5Q22.4 1.55 20.6.8 16.75-.75 11.1.7l.05 1.1.75.05q.9.1 1.8.3 3 .75 4.9 2.65l.45.8q.3.9-.4 1.55l-1 1.05 3.55 3.5.4-.4.6-.6q.45-.5 1.4-.35 1 .15 1.8 1 .6.55.75 1.1.1.55-.2.8-.2.25-.05.7.1.45.4.75l.6.6q.45.4 1 .4.5 0 .9-.4l2.6-2.65q.4-.4.4-.95z"/></svg>