<?xml version="1.0" encoding="utf-8"?>
<!-- Generator: Adobe Illustrator 19.0.0, SVG Export Plug-In . SVG Version: 6.00 Build 0)  -->
<svg version="1.1" id="Layer_1" xmlns="http://www.w3.org/2000/svg" xmlns:xlink="http://www.w3.org/1999/xlink" x="0px" y="0px"
	 viewBox="0 123.3 595.6 595.6" style="enable-background:new 0 123.3 595.6 595.6;" xml:space="preserve">
<style type="text/css">
	.st0{fill:none;}
	.st1{fill:#010101;}
</style>
<g id="XMLID_627_">
	<g id="XMLID_628_">
		<g>
			<path class="st0" d="M507.1,245.2c-11.8,0-21.3,9.5-21.3,21.3c0,11.8,9.5,21.3,21.3,21.3s21.3-9.5,21.3-21.3
				C528.4,254.7,518.9,245.2,507.1,245.2z"/>
			<path class="st0" d="M93.3,559.1c-11.8,0-21.3,9.5-21.3,21.3s9.5,21.3,21.3,21.3s21.3-9.5,21.3-21.3S105.1,559.1,93.3,559.1z"/>
			<path d="M97,543.8c-1.2-0.1-2.4-0.2-3.7-0.2c-20.5,0-37.2,16.7-37.2,37.2S72.8,618,93.3,618s37.2-16.7,37.2-37.2
				c0-7.1-2-13.7-5.4-19.3l69-98.4c-12.2-0.8-24-3.5-35.1-7.8L97,543.8z M93.3,601.7c-11.8,0-21.3-9.5-21.3-21.3s9.5-21.3,21.3-21.3
				c11.8,0,21.3,9.5,21.3,21.3S105.1,601.7,93.3,601.7z"/>
			<path d="M507.1,229.8c-20.3,0-36.7,16.5-36.7,36.7c0,5.8,1.3,11.2,3.7,16.1L335.6,487.4l-64.1-46c-10.2,7.2-21.6,12.9-33.8,16.7
				L344,534.3l156.6-231.6c2.1,0.4,4.3,0.6,6.5,0.6c20.3,0,36.7-16.5,36.7-36.7S527.4,229.8,507.1,229.8z M507.1,287.8
				c-11.8,0-21.3-9.5-21.3-21.3c0-11.8,9.5-21.3,21.3-21.3s21.3,9.5,21.3,21.3C528.4,278.3,518.9,287.8,507.1,287.8z"/>
		</g>
		<path id="XMLID_630_" class="st1" d="M128.8,393H106c17.9,35,54.4,59,96.5,59c59.8,0,108.3-48.5,108.3-108.3
			s-48.5-108.3-108.3-108.3c-53.1,0-97.3,38.2-106.5,88.6H74.5l29.5,39.4l29.5-39.4H116c9-39.5,44.2-68.9,86.4-68.9
			c48.9,0,88.6,39.7,88.6,88.6s-39.7,88.6-88.6,88.6C171.8,432.4,144.7,416.7,128.8,393z"/>
		<polygon id="XMLID_629_" class="st1" points="197.5,275.1 197.5,347.2 248.8,377.4 253.8,369 207.4,341.3 207.4,275.1 		"/>
	</g>
</g>
</svg>
