<svg id="Layer_1" data-name="Layer 1" xmlns="http://www.w3.org/2000/svg" viewBox="0 0 595.61 595.61"><defs><style>.cls-1{fill:#fff;}</style></defs><title>mt icons</title><path class="cls-1" d="M296.71,164.8,132.54,300.13a3.88,3.88,0,0,1-.14.86,3.91,3.91,0,0,0-.14.85v137a18.54,18.54,0,0,0,18.27,18.28H260.16V347.52h73.1V457.16H442.89a18.56,18.56,0,0,0,18.28-18.28v-137a4,4,0,0,0-.29-1.71Z"/><path class="cls-1" d="M523.68,269.3l-62.52-52V100.85A8.8,8.8,0,0,0,452,91.71H397.21a8.79,8.79,0,0,0-9.14,9.14v55.67L318.41,98.28a35.42,35.42,0,0,0-43.39,0L69.73,269.3a8.29,8.29,0,0,0-3.14,6.14,9.25,9.25,0,0,0,2,6.71l17.7,21.13a9.74,9.74,0,0,0,6,3.14,10.61,10.61,0,0,0,6.86-2L296.71,139.68,494.28,304.42a8.8,8.8,0,0,0,6,2h.86a9.75,9.75,0,0,0,6-3.14l17.7-21.12a9.24,9.24,0,0,0,2-6.72A8.32,8.32,0,0,0,523.68,269.3Z"/></svg>