<svg xmlns="http://www.w3.org/2000/svg" preserveAspectRatio="none" viewBox="0 0 29 30"><defs/><path fill="#9279BA" d="M5.8 16.35q-.2-.2-.55-.3-.1-.05-.4-.05h-3.8q-.2.05-.3.1-.1 0-.2.1-.2.1-.3.3-.15.2-.2.35v.05q0 .05-.05.05v12.2q.05.05.1.2.05.25.3.45.25.25.55.3H5q.2 0 .3-.05.1 0 .2-.1.25-.1.4-.35.2-.25.25-.55v-6-5.15q0-.85-.05-.95-.1-.35-.3-.6z"/><path fill="#D8B094" d="M21.2 3.5q0-.2-.1-.6-.15-.65-.4-1.05-.2-.45-.55-.8Q19.9.8 19.6.6q-.3-.2-.6-.35-.1-.05-.3-.1-.15 0-.55-.1Q18 0 17.8 0q-.2 0-.35.05-.15.05-.2.1-.05 0-.1.05l-.1.2q0 .1-.05.35 0 .5-.15 1.45-.1 1-.2 1.5-.15.85-.4 1.6-.3.75-.65 1.25-.2.4-.5.65-.25.25-.85.75t-.9.85q-.35.35-.55.75-.05.1-.15.4-.15.3-.3.65-.45 1.1-.75 1.7-.3.65-.65 1.25-.7 1.3-1.35 2.05-.6.7-1.25.95H8.2q-.1.05-.4.05h-.4q-.05.05-.05 6.3t.05 6.3l.1.05q.1 0 1.05.15l1.65.35q1.5.25 3.15.55l.4.1q.25 0 .4.05l.7.05 1.85.1q.95.05 2.75.1 1.35.05 2.55 0 1.2-.05 1.85-.2.5-.1.9-.3.4-.2.9-.55.3-.25.65-.65.35-.4.45-.6.15-.2.15-.35.05-.15.05-.8v-.65q0-.1.05-.2.05-.15.2-.35.15-.15.5-.55.5-.5.7-.75.15-.25.25-.5.05-.25 0-.5-.05-.3-.35-.95l-.2-.55q-.05-.2-.05-.4t.15-.45q.1-.2.6-.75.35-.4.45-.6.1-.25.1-.45-.05-.15-.15-.35l-.35-.65q-.35-.6-.45-.8-.1-.25-.05-.45l.1-.3.4-.55q.15-.15.25-.35l.15-.25q.05-.1.05-.15.05-.05.05-.25 0-.15-.05-.2 0-.1-.05-.3-.2-.55-.5-1-.3-.45-.6-.8-.3-.3-.55-.45-.3-.2-.75-.3-.45-.1-1.35-.15-.95-.05-2.55-.1h-2.8l-.95.05h-.15L19 12.2q-.05-.1-.1-.4 0-.3.05-.6.1-.55.35-1.2.25-.7 1-2.1l.5-1.1.25-.9.15-.7v-.85-.85z"/></svg>