<svg xmlns="http://www.w3.org/2000/svg" version="1.0" viewBox="0 0 1222 1280" fill="#9279BA"><defs/><path d="M725.8 2.6c-6 1.9-8.4 3.3-11.2 6.4-4.2 4.7-5.2 8.3-6.1 21.5-1.8 29.1-9.8 95.1-15 124-8.3 45.6-24.7 90.9-43.2 119-13.3 20.1-23.3 30.3-56.8 57.6-33.1 26.9-49.3 44.8-60 66.4-3 6-11.5 25.4-18.8 43-25.7 61-39.5 90.6-57.8 123.5-40.4 72.7-74.6 111.8-108.6 124.2-4.9 1.8-8.5 2.1-22.7 2.4-9.3.2-17.3.7-17.7 1.1-1.2 1.2-1.2 522.4-.1 523.5.5.5 2.7 1.3 4.8 1.8 4.5 1 71.6 13.5 112.9 21 27.3 5 94.6 17.6 131.2 24.6 10.1 1.9 24.2 3.9 31.5 4.4 7.3.6 20.7 1.7 29.8 2.5 48.6 4.3 91.7 6.5 191 9.6 76.6 2.4 147.8-.9 185.1-8.5 27.4-5.7 46.9-15.4 72.9-36.3 18-14.5 41.4-40 47.8-52.2 6.3-11.9 6.4-12.7 6.6-46.6.1-29 .2-31.3 2.2-36.1 3.9-9.5 9.8-16.8 30.5-37.4 27.1-27 34.7-37.3 38.5-52 3.5-13.7 1.3-23.5-13.4-60-8.9-22.1-11.2-30.3-11.2-40 0-12.4 4.1-18.9 31.5-50.5 18.8-21.5 23.7-31.5 21.7-43.3-1.4-8.5-6-17.7-20.9-42.5-19.2-31.9-22.3-40-19.9-51.7 1.5-7.2 4.9-12.8 20.8-34.3 7.1-9.5 14.5-20.6 16.5-24.7 3.6-7.1 3.8-8 3.8-17-.1-8.5-.5-10.8-4.2-21.6-5.1-14.8-11.9-28.6-21-42.4-15.9-23.9-32.9-42.9-46.5-51.8-17.4-11.3-36.8-15.4-88.3-18.7-51.5-3.3-159.4-4.5-222.2-2.5-46.7 1.5-45.2 1.5-47.5-.8-4.6-4.6-6.2-25.6-3.3-42.8 5.1-29.6 16.7-57.9 55.8-136.1 20.9-41.6 25-52.4 32.7-84.7 6-25.4 6.4-29.4 6.4-63.6.1-33.9-.3-38.4-5.6-60-8.7-36.1-19.5-57.3-39.6-77.6-14-14.1-30.4-25.4-46.8-32.1-7.3-3-14.3-4.9-35.1-9.8-9.4-2.3-21.4-1.8-30.5 1.1zM43.5 666.5c-9.4 1.8-14.5 3.7-21 8.1-9.4 6.2-17.9 17.8-20 27.1-.3 1.8-1.1 3.5-1.6 3.8-1.2.8-1.2 507.8 0 509 .5.6 1.6 3.5 2.5 6.6 4.1 14.3 20.2 28.4 36.4 31.8 3.7.8 31 1.1 88 1.1 91.1 0 89.6.1 101.6-6.3 13.9-7.3 23.4-21.1 25.9-37.7.3-1.9.7-114.6.9-250.5.2-237.3.2-247.3-1.6-254-5.1-19.4-17.8-32.8-36-37.9-6.8-2-10.4-2-87.6-2.3-63.8-.1-82 .1-87.5 1.2z"/></svg>