<svg xmlns="http://www.w3.org/2000/svg" preserveAspectRatio="none" viewBox="0 0 29 30"><defs/><path fill="#9279BA" d="M.77 16.08q-.11.04-.23.12-.17.11-.3.3-.14.18-.18.35l-.02.06-.02.03Q0 16.96 0 23.05q0 6.1.02 6.12l.06.16q.07.26.33.48.25.22.55.28.11.03 2.1.03 1.65 0 1.94-.02.2-.01.31-.04l.2-.1q.25-.13.41-.36.17-.24.21-.54l.02-6.02v-5.12q0-.86-.04-.98-.09-.35-.31-.58-.22-.23-.55-.33-.12-.03-.42-.04l-1.68-.01H1.57q-.43 0-.53.03-.17.03-.27.07M20.13 1.04Q19.88.8 19.6.6q-.29-.2-.58-.32l-.3-.1-.55-.13Q18 0 17.8 0q-.2.01-.37.06l-.16.07q-.06.03-.1.09-.08.08-.11.18-.03.1-.04.33-.04.53-.15 1.5-.12.96-.21 1.48-.15.82-.43 1.59-.28.76-.61 1.27-.24.36-.5.63-.26.26-.87.75-.6.49-.92.85-.32.36-.52.75l-.18.4-.27.63q-.46 1.1-.76 1.74-.3.64-.63 1.23-.72 1.3-1.36 2.03-.63.73-1.24.95l-.2.04-.35.02-.3.01-.13.01q-.02.03-.02 6.3 0 6.26.02 6.28.02.02.12.04l1.02.2 1.69.3 3.15.6.4.06.36.04.71.06q.87.08 1.84.13l2.75.1q1.38.04 2.58-.01 1.2-.06 1.86-.2.5-.1.9-.3.39-.19.86-.57.32-.26.67-.64.36-.39.47-.6.12-.22.14-.37.02-.15.02-.76l.01-.65q.01-.13.04-.21.08-.18.22-.35.15-.18.52-.55.48-.49.67-.74.18-.25.25-.51.07-.25 0-.52-.05-.27-.32-.92-.16-.4-.21-.6-.06-.19-.06-.36 0-.23.13-.44.13-.2.63-.78.34-.38.45-.6.1-.22.07-.44-.03-.15-.13-.36-.1-.2-.37-.66-.35-.57-.44-.8-.08-.23-.04-.44.03-.13.12-.28l.38-.54q.13-.17.24-.35.12-.17.15-.25.07-.12.08-.18.02-.06.02-.22t-.02-.24l-.08-.28q-.19-.53-.5-1.02-.3-.43-.59-.76-.3-.33-.53-.48-.32-.2-.76-.3-.44-.1-1.37-.16-.93-.05-2.56-.07-1.65-.02-2.77.01l-.97.03-.13-.01q-.02 0-.04-.03-.09-.09-.11-.4-.03-.32.03-.63.09-.53.36-1.2.27-.66.98-2.07.37-.74.5-1.1.14-.35.28-.93.11-.46.13-.69.03-.23.03-.84t-.02-.83q-.02-.22-.12-.61-.15-.65-.37-1.08-.22-.42-.58-.79z"/></svg>