<svg xmlns="http://www.w3.org/2000/svg" viewBox="0 0 16 16"><defs/><path fill="#9279BA" d="M7.4 1.5a6.6 6.6 0 011.2 0l.1.2.3 1c.1.6.5 1 1 1.3.2 0 .3.1.5.3.4.2 1 .4 1.5.2l1.1-.3h.2l.6 1v.2l-.9.9c-.4.4-.5 1-.5 1.4a4.6 4.6 0 010 .6c0 .5.1 1 .5 1.4l.8.9c.1 0 .1.1 0 .1a6.5 6.5 0 01-.5 1s0 .1-.2 0l-1-.2c-.6-.2-1.2 0-1.6.2l-.5.3c-.5.3-.9.7-1 1.2l-.3 1.1-.1.2a6.6 6.6 0 01-1.2 0l-.1-.2-.3-1c-.1-.6-.5-1-1-1.3a4.5 4.5 0 01-.5-.3c-.4-.2-1-.4-1.5-.2l-1.1.3h-.2a6.5 6.5 0 01-.6-1v-.2l.9-.9c.4-.4.5-1 .5-1.4a4.6 4.6 0 010-.6c0-.5-.1-1-.5-1.4l-.8-.9-.1-.1a6.4 6.4 0 01.6-1s0-.1.2 0l1 .2c.6.2 1.2 0 1.6-.2L6 4c.5-.3.9-.7 1-1.2l.3-1.1.1-.2zM8 0h-.7C6.6.1 6 .6 5.8 1.3l-.2 1.1s-.1.2-.3.2a6 6 0 00-.6.4h-.3l-1.1-.2c-.7-.2-1.4 0-1.8.6a8 8 0 00-.8 1.2c-.3.7 0 1.4.4 2l.8.7.1.3a6 6 0 000 .8v.3l-.9.8c-.5.5-.7 1.2-.4 1.9l.8 1.2c.4.6 1.1.8 1.8.6l1-.3h.4l.6.5c.2 0 .2.1.3.2l.2 1.1c.2.7.8 1.2 1.5 1.3a8 8 0 001.4 0c.7-.1 1.3-.6 1.5-1.3l.2-1.1s.1-.2.3-.2a6 6 0 00.6-.4h.3l1.1.2c.7.2 1.4 0 1.9-.6l.7-1.2c.3-.7 0-1.4-.4-2l-.8-.7-.1-.3a6.1 6.1 0 000-.8v-.3l.9-.8c.5-.5.7-1.2.4-1.9a8 8 0 00-.7-1.2c-.5-.6-1.2-.8-1.9-.6l-1 .3h-.4a6 6 0 00-.6-.5c-.2 0-.2-.1-.3-.2l-.2-1.1C10 .6 9.4 0 8.7 0A8 8 0 008 0zm1.5 8a1.5 1.5 0 11-3 0 1.5 1.5 0 013 0zM11 8a3 3 0 11-6 0 3 3 0 016 0z"/></svg>