<?xml version="1.0" encoding="utf-8"?>
<!-- Generator: Adobe Illustrator 19.0.0, SVG Export Plug-In . SVG Version: 6.00 Build 0)  -->
<svg version="1.1" id="Layer_1" xmlns="http://www.w3.org/2000/svg" xmlns:xlink="http://www.w3.org/1999/xlink" x="0px" y="0px"
	 viewBox="-122 298 595.6 595.6" style="enable-background:new -122 298 595.6 595.6;" xml:space="preserve">
<style type="text/css">
	.st0{fill:#FFFFFF;}
</style>
<g id="XMLID_422_">
	<g id="XMLID_481_">
		<g id="XMLID_482_">
			<path id="XMLID_483_" class="st0" d="M390,371.2H-38.4c-23,0-41.8,18.7-41.8,41.8v250.5c0,23,18.7,41.8,41.8,41.8H-14v103.1
				c0,4.8,2.9,9.2,7.3,11c1.5,0.6,3,0.9,4.6,0.9c3.1,0,6.1-1.2,8.4-3.5l111.5-111.5H390c23,0,41.8-18.7,41.8-41.8V413
				C431.8,389.9,413.1,371.2,390,371.2z M390,681.4H112.9c-3.1,0-5.9,1.2-8,3.1c0,0,0,0-0.1,0.1s-0.3,0.3-0.4,0.4L9.8,779.6v-86.2
				c0-0.4,0-0.8-0.1-1.1c-0.6-6.1-5.6-10.8-11.8-10.8h-36.3c-9.9,0-18-8.1-18-18V413c0-9.9,8.1-18,18-18H390c9.9,0,18,8.1,18,18
				v250.5l0,0C408,673.4,399.9,681.4,390,681.4z"/>
		</g>
	</g>
	<g id="XMLID_478_">
		<g id="XMLID_479_">
			<path id="XMLID_428_" class="st0" d="M93.8,458.1H24.4c-6.6,0-11.9,5.3-11.9,11.9s5.3,11.9,11.9,11.9h69.4
				c6.6,0,11.9-5.3,11.9-11.9C105.7,463.5,100.4,458.1,93.8,458.1z"/>
		</g>
	</g>
	<g id="XMLID_475_">
		<g id="XMLID_476_">
			<path id="XMLID_427_" class="st0" d="M217.5,526.3H24.4c-6.6,0-11.9,5.3-11.9,11.9c0,6.6,5.3,11.9,11.9,11.9h193.2
				c6.6,0,11.9-5.3,11.9-11.9C229.5,531.6,224.1,526.3,217.5,526.3z"/>
		</g>
	</g>
	<g id="XMLID_472_">
		<g id="XMLID_473_">
			<path id="XMLID_426_" class="st0" d="M327.2,458.1H163.3c-6.6,0-11.9,5.3-11.9,11.9s5.3,11.9,11.9,11.9h163.9
				c6.6,0,11.9-5.3,11.9-11.9C339.1,463.5,333.8,458.1,327.2,458.1z"/>
		</g>
	</g>
	<g id="XMLID_469_">
		<g id="XMLID_470_">
			<path id="XMLID_425_" class="st0" d="M327.2,526.3h-43.1c-6.6,0-11.9,5.3-11.9,11.9c0,6.6,5.3,11.9,11.9,11.9h43.1
				c6.6,0,11.9-5.3,11.9-11.9S333.8,526.3,327.2,526.3z"/>
		</g>
	</g>
	<g id="XMLID_466_">
		<g id="XMLID_467_">
			<path id="XMLID_424_" class="st0" d="M132.2,594.5H24.4c-6.6,0-11.9,5.3-11.9,11.9c0,6.6,5.3,11.9,11.9,11.9h107.8
				c6.6,0,11.9-5.3,11.9-11.9C144.1,599.8,138.8,594.5,132.2,594.5z"/>
		</g>
	</g>
	<g id="XMLID_463_">
		<g id="XMLID_464_">
			<path id="XMLID_423_" class="st0" d="M327.2,594.5H195.5c-6.6,0-11.9,5.3-11.9,11.9c0,6.6,5.3,11.9,11.9,11.9h131.7
				c6.6,0,11.9-5.3,11.9-11.9S333.8,594.5,327.2,594.5z"/>
		</g>
	</g>
</g>
</svg>
