<svg xmlns="http://www.w3.org/2000/svg" preserveAspectRatio="none" viewBox="0 0 160 24"><defs/><path fill="#B9A5E2" d="M21.5 3.35q0-.1-.05-.3-.05-.25-.2-.45-.15-.25-.3-.4-.2-.2-.4-.25-.3-.1-.65-.15l-.7-.1h-.55q-.25-.05-.35-.05-.85 0-1.75.15-.85.1-1.75.3-.9.15-1.8.35-.9.2-1.75.35l-.8.15q-.55.05-1.2.15l-1.4.2-1.4.2q-.65.05-1.15.15-.5.05-.65.05-.95 0-1.9.1t-1.7.3q-.35.05-.55.2-.2.15-.35.35Q.05 4.8 0 5v.8q0 .3.25.5.25.15.6.25.3.1.65.15.35.05.55.05Q3 6.75 4 6.6l2.05-.2 1.45-.2q.65-.05 1.1-.05-.05.3-.1 1-.1.75-.2 1.75-.15.95-.25 2.05-.15 1.15-.25 2.2-.1 1.05-.15 2-.1.95-.1 1.55 0 .4.05.85 0 .45.05.9l.1.95q.05.45.2.8.1.3.3.55.2.25.45.45.2.2.5.35.25.1.5.1.35 0 .6-.15.3-.2.5-.45.15-.3.3-.65.1-.35.1-.65l-.05-.35-.1-.8-.1-.9q-.05-.5-.05-.75 0-1.8.2-3.65l.4-3.75.35-3.3q0-.2.05-.4.1-.3.2-.35.1-.05.45-.15.3-.1.7-.2.4-.1.9-.2.45-.1.95-.15.45-.1.9-.15h2.5q.4 0 .75.05h.9q.2 0 .45-.05t.45-.2q.2-.15.35-.4.1-.25.1-.7m66.2-1.3q-.4-.35-.9-.6-.5-.3-1-.45-.55-.15-1-.15-.7 0-1.25.05-.6 0-1.05.05-.5.05-.9.15l-.85.2-1.3.45q-1 .35-2.7.9l-.75.2q-.4.1-.75.15-.65.1-1.2 1.15-.2.4-.3.85-.1.45-.1 1v.2l.1.35q0 .2.05.4v.35q0 .2-.1 1.25v.25q-.05.1-.05.2-.05.35-.1.9v.4l-.1.7-.1 1.1-.1.85q-.05.35-.05.45l-.05.5-.1.85q-.1.45-.15 1-.1.5-.15.95l-.1.75-.05.3q0 .75.1 1.35.05.55.25.95.2.4.55.55.35.2.85.2 1 0 1.5-.6.5-.65.5-2v-2.5q0-.5.1-1.25l.2-1.45q.05-.6.1-.95t.05-.65q.05-.35.05-.7.05-.4.05-.95L77 8.2v-1q0-.45.05-.65 0-.2.05-.25.2-.25.5-.5t.7-.5q.35-.2.8-.4.4-.2.85-.3 1-.35 2.05-.5 1-.15 1.85-.15 1.05 0 1.5.25.45.25.45.75 0 .25-.2.6-.25.3-.6.65-.35.4-.8.75l-.9.7q-.45.35-.9.6-.4.3-.7.45-.05.05-.2.05H80.65q-.25 0-.45.05-.35.1-.65.25-.35.15-.6.45-.2.25-.35.6-.15.4-.15.85 0 .25.1.5t.3.4q.2.2.5.35.3.1.6.1.25 0 .5-.05.25-.1.55-.25l.55-.2q.2-.1.5-.15.25-.1.6-.1.35-.05.8-.05.2 0 .55.05l.7.25q.35.1.8.35.4.2.7.5.35.3.55.7.2.35.2.85 0 .55-.25 1.25-.3.6-.75 1.25-.45.6-.95 1.15-.55.55-1.1.9-.15.1-.45.25-.3.1-.65.25-.35.05-.65.15-.3.05-.45.05-.35 0-1.05-.3-.2-.1-.35-.15l-.3-.1q-.2-.05-.35-.05-.2-.05-.45-.05-.45 0-.8.15-.4.1-.65.3-.3.2-.45.5-.15.3-.15.7 0 .55.2 1 .2.4.6.65.4.3.95.4.6.15 1.3.15.7 0 1.5-.15t1.65-.4q.85-.3 1.55-.6.7-.3 1.15-.6l.5-.4q.25-.25.55-.5.3-.3.6-.65l.6-.7q.5-.65.85-1.2.35-.6.6-1.2.25-.55.4-1.15.1-.6.1-1.25 0-.7-.35-1.4-.4-.7-1-1.35-.65-.6-1.5-1.05-.8-.5-1.75-.8 1.55-1.3 2.4-2.4.8-1.1.8-2.1 0-.2-.05-.5l-.1-.55q-.1-.25-.15-.5-.1-.25-.2-.4-.25-.4-.65-.75m65.2 5.05q-.15-.2-.4-.35-.25-.15-.65-.15-.65 0-1.25.4-.65.35-1.25.9-.55.55-1 1.15-.5.55-.8 1-.3.45-.75 1l-.95 1.15-1 1.2-.95 1.15.1-.6q.05-.25.1-.65.05-.35.15-.85.1-.5.2-1.2l.3-1.5q.15-.95.45-2.55 0-.15.05-.55.1-.35.2-.9.05-.5.15-1.05l.2-1.15.1-1q.05-.45.05-.65v-.45q-.05-.25-.25-.5-.15-.3-.45-.45-.35-.2-.9-.2-.4 0-.7.2-.3.2-.5.45-.25.3-.35.65-.1.35-.1.65l-.1 1.6q-.1.8-.15 1.65l-.2 1.75q-.1.85-.25 1.7v.4q-.1.35-.15.9-.05.55-.15 1.25-.1.7-.15 1.45l-.2 1.45q-.1.75-.2 1.3l-.1.95-.05.45q-.05.35-.15.8-.05.4-.15.85l-.1.9q-.05.4-.05.8 0 .35.05.6t.15.4q.15.2.4.25.25.1.65.1.55 0 .85-.1.35-.1.5-.4.2-.25.25-.65.05-.45.05-1.1 0-.4.1-.7.05-.35.25-.65.15-.3.5-.65.3-.35.8-.85.3.2.65.55.35.35.7.75l.8.8q.4.4.8.75.4.4.85.75.45.3.95.55.5.25 1 .4.55.15 1.15.15.8 0 1.7-.4.9-.4 1.8-1 .9-.65 1.7-1.4.85-.75 1.5-1.4.65-.65 1-1.15.4-.55.4-.7l-.05-.15-.1-.3q-.1-.15-.25-.25-.1-.15-.3-.15-.3 0-.5.25l-.6.5q-.3.3-.7.65-.45.35-.9.75l-1 .7q-.5.35-1 .6-.5.3-.95.45-.5.15-.9.15h-.5l-.5-.1q-.25-.1-.55-.3-.3-.2-.8-.5-.45-.3-.9-.75l-.9-.8q-.45-.4-.85-.8-.4-.4-.75-.65.6-.75 1.4-1.55.75-.8 1.75-1.8l.9-.8q.5-.45.95-.9.45-.45.8-.85.3-.45.3-.8 0-.2-.05-.4-.1-.25-.25-.45z"/><path fill="#D1C1F2" d="M39.1 11.5q-.1-.2-.35-.2-.55 0-1.3.65l-.7.75q-.9.85-1.85 1.7-.9.85-1.95 1.55-.55.45-1.25.8-.7.4-1.45.65-.75.3-1.5.5-.75.15-1.4.15-.5 0-.95-.1-.4-.15-.7-.4-.3-.2-.45-.5-.15-.3-.2-.65.85-.65 1.55-1.15.65-.5 1.2-.95 1.6-1.4 2.5-2.65.9-1.35.9-2.55 0-.65-.2-1.25-.15-.6-.5-1.05-.3-.45-.85-.75-.55-.25-1.25-.25-.5 0-1 .15t-.95.4q-.45.25-.85.55-.4.3-.7.65-.85.9-1.4 1.9-.55.95-.9 1.95t-.5 2.05q-.15 1.05-.15 2.1 0 2.65 1.3 4 1.3 1.3 3.65 1.3 1.05 0 2.15-.3 1.05-.35 2.15-.9 1.1-.55 2.15-1.35 1.1-.75 2.05-1.65 1-.9 1.85-1.9.9-1 1.6-2.05.35-.65.35-.9 0-.15-.1-.3m-13.65.15q.35-1 .85-1.75.45-.75 1-1.15.55-.4 1-.4.15.1.2.35.05.3.05.6 0 .7-.35 1.35-.3.6-.85 1.2-.5.55-1.15 1.1l-1.3 1q.15-1.25.55-2.3m76.4 5.8v-.35q-.6.3-1.2.55-.65.25-1.2.25-.6 0-1-.25-.4-.3-.65-.75-.25-.5-.4-1.15-.1-.65-.1-1.5 0-1.05.1-2.25.15-1.15.35-2.3.15-1.2.4-2.35.2-1.15.45-2.15.2-1.05.4-1.95.2-.85.3-1.5l.2-.8Q99 0 98 0q-.4 0-.75.15t-.6.45q-.25.25-.4.6-.2.35-.25.75-.15.75-.25 1.35-.1.6-.15 1.1-.1.5-.15 1-.1.5-.2 1.15-.2.95-.35 2.05-.2 1-.35 2.1-.15 1.05-.25 2.1t-.1 2q0 1.5.4 2.6.35 1.1 1 1.85.7.75 1.55 1.1.9.35 1.9.35.75 0 1.5-.25t1.5-.65q.25-.15.55-.3-.3-.4-.45-.8-.3-.65-.3-1.25m5.4-5.15q-.15 0-.3.05-.05 0-.05.05l-.5.7q-.25.35-.5.75l-.45.9q-.25.45-.35 1.05-.1.65-.1 1.2 0 .2.05.35.6-.6 1-1.15.6-.8 1-1.4.35-.65.5-1.1.15-.5.15-.8 0-.3-.1-.45-.15-.15-.35-.15m31.8 0q.1-.2.1-.45 0-.75-.7-.75-.35 0-.7.15-.4.2-.8.45-.45.3-.85.7-.45.35-.85.75-1.2 1.15-2.2 1.95-.95.8-1.85 1.45-1.35.95-2.8 1.5-1.45.6-3 .6-.5 0-1.05-.6-.55-.5-.55-1.2 0-.75.2-1.5.1-.8.35-1.5.25-.75.55-1.4.3-.65.65-1.15.4-.55.75-.9t.7-.45q.1.15.25.55.1.45.3.85.25.45.55.75.35.3.85.3.35 0 .55-.2.25-.2.35-.5.15-.3.2-.65.05-.35.05-.55 0-.45-.45-1.4-.2-.5-.5-.9-.25-.4-.55-.75-.3-.3-.6-.45-.3-.2-.6-.2-.5 0-1.05.25-.5.25-1 .65-.5.35-.9.85l-.8.9q-1.3 1.75-2.05 3.6-.75 1.8-.75 3.6 0 .9.25 1.8.3.85.85 1.45.55.65 1.35 1.05.75.35 1.8.35 1.55 0 3-.4 1.4-.45 2.6-1.2.85-.55 1.7-1.2.85-.65 1.75-1.4l.7-.6.55-.45q.25-.25.55-.5.3-.25.65-.65l1.2-1.2.65-.55q.2-.25.4-.45.15-.2.2-.4z"/><path fill="#E7DDFF" d="M73.65 9q0-.1.05-.2-.15-.05-.25-.05-.4 0-.7.05l-.75.1-1 .2q-.55.1-1.35.2l-1.25.1-1.1.1H65.15l.1-.4q.05-.35.2-1.05l.35-1.6.55-1.95q.15-.45.25-.95.05-.45.05-.8 0-.7-.35-1.05-.35-.3-1.1-.3-.7 0-1.05.4-.4.45-.6 1.1-.2.6-.3 1.35-.1.7-.25 1.25l-.15.65q-.1.4-.2.9t-.25 1q-.1.5-.2.9t-.2.65q-.1.3-.2.3h-.55l-.8.1q-.4 0-.75.05t-.5.05h-.65q-.35.05-.7.15-.35.1-.55.3-.25.2-.25.55 0 .55.1.9.15.35.4.55.3.2.7.3.45.05 1.05.05h.2l-1.05 1.3-1.1 1.2q-1.2 1.3-2.3 1.95-1.15.6-2 .6-.4 0-.9-.15-.5-.25-1.05-.5-.5-.3-1-.65l-.85-.7q.6-.65 1.2-1.25t1-1.1q.4-.5.8-.95.35-.45.7-.85.3-.4.5-.8.15-.35.15-.65 0-.35-.15-.65-.15-.35-.35-.55-.25-.25-.5-.4-.3-.1-.65-.1-.3 0-.55.05-.25.05-.45.2-.2.15-.4.45-.15.25-.35.65-.3.7-.65 1.3-.3.65-.75 1.1-.35.45-.75.9l-.85.85-.5-.6q-.25-.35-.4-.6-.25-.4-.45-1-.25-.55-.4-1.5 0-.25-.05-.55-.05-.35-.2-.65-.15-.3-.45-.5-.3-.2-.75-.2-.55 0-.95.2-.35.15-.6.4t-.35.55q-.1.35-.1.7 0 .6.25 1.35.25.75.85 1.85.15.25.4.55l.5.7q.3.35.6.65l.55.65-1.65 1.55q-.7.7-1.05 1.1-.3.35-.55.8-.3.4-.55.85-.2.45-.35.85-.1.45-.1.85 0 1 .65 1.55.7.5 1.95.55.5-.65.75-1.55.2-.45.35-.95.2-.5.35-.8l.35-.7q.15-.4.45-.8.3-.4.6-.85.35-.4.8-.8.7.65 1.4 1.2.7.55 1.3.95.65.4 1.25.6.55.2 1.15.2.8 0 1.6-.25t1.55-.65q.7-.4 1.35-.95.65-.55 1.15-1.15.3-.3.7-.8l.95-1.15.95-1.25q.45-.55.8-1.1-.1.35-.2.8l-.2 1.1q-.15.55-.25 1.05-.3 1.1-.4 2.15-.15 1.1-.15 2 0 .5.15 1.05.15.5.45.9.25.4.65.6.4.25.9.25.3 0 .6-.1.35-.1.65-.3.3-.15.45-.4.2-.25.2-.5 0-.4-.15-.6-.2-.2-.5-.4l-.3-.3q-.15-.2-.15-.7 0-.15.05-.4 0-.25.05-.6l.1-.7q.05-.4.15-.75l.1-.6q.05-.3.1-.45l.45-2.05q.25-1.05.55-2.2l.6-.1q.35-.05.75-.05l.8-.1.8-.1q.55-.05 1.25-.15.65-.1 1.35-.25.7-.15 1.4-.35.7-.2 1.3-.5l.4-.2.3-.2v-.4q.05-.55.1-.9m48.3 1.9q.2-.25.3-.5.1-.3.1-.55 0-.1-.05-.3-.05-.2-.1-.3-.75.3-1.35.5-.6.2-1.15.3l-1.1.1h-1.15q-.6 0-1.35-.15-.75-.2-1.4-.4-.7-.2-1.15-.4-.5-.25-.6-.35l-.3-.3q-.3-.35-.6-.65-.25-.3-.55-.5-.3-.2-.65-.3-.35-.1-.8-.1-.6 0-1.2.2-.65.25-1.25.65t-1.15.9q-.55.45-.95 1-.75.9-1.4 1.8-.65.9-1.15 1.85-.5.95-.8 1.95-.25.85-.3 1.75v.35q0 .6.3 1.25.15.4.45.8l.25.35q.45.45 1.05.8.55.3 1.2.3.8 0 1.55-.1t1.5-.3q.7-.15 1.35-.45.65-.3 1.2-.7.65-.5 1.3-1.15.65-.7 1.15-1.5.5-.8.8-1.65.3-.85.3-1.75v-.3-.45l-.1-.45q-.05-.2-.15-.35.4.2.85.35l.85.2q.45.1.9.15.4.05.8.05 1.35 0 2.25-.25.95-.2 1.45-.55.25-.15.45-.35.25-.25.4-.5m-10.4.65q.1.3.15.7.05.35.05.7 0 .1-.05.35 0 .2-.05.5-.05.25-.15.55-.05.25-.15.4l-.45.65q-.2.3-.45.6t-.5.55q-.25.25-.5.45l-.9.65-.75.45q-.4.15-.8.2-.45.05-1.05.05-.25 0-.45-.1-.15-.15-.3-.35-.1-.2-.15-.4v-.15Q105 17.2 105 17q0-.55.1-1.2.1-.6.35-1.05l.45-.9q.25-.4.5-.75l.5-.7q0-.05.05-.05l.45-.65q.25-.25.5-.6l.5-.6q.25-.3.45-.45.2-.2.3-.2l.1.05q.05.1.25.2.15.15.45.3.3.15.8.25.3.1.5.35.2.2.3.55z"/></svg>