<svg xmlns="http://www.w3.org/2000/svg" preserveAspectRatio="none" viewBox="0 0 105 151"><defs/><path fill="none" stroke="#E7DDFF" stroke-linecap="round" stroke-linejoin="round" stroke-width="10" d="M73.5 61.5l13.3.4Q100 63.9 100 72T84.2 82.7l-15.8 1M37 84q-8.1.4-16.1-.9Q4.8 80.6 5 72.5q.3-8.1 15.2-10.8 7.4-1.4 14.8-1.2"/><path fill="none" stroke="#9279BA" stroke-linecap="round" stroke-linejoin="round" stroke-width="10" d="M68.4 83.7l3.8 9.5.33.85q4.07 11 6.57 20.25 8.5 30.8-3.1 31.7-11.6.9-18.2-23.2-2.1-7.6-3.4-16.7l-.9-7.6M35 60.5q-6-12.9-9.9-26.1-7.9-26.6 2.4-28.5Q37.8 4 46.4 27.3 50.8 39 53 51"/><path fill="none" stroke="#B9A5E2" stroke-linecap="round" stroke-linejoin="round" stroke-width="10" d="M53.5 98.5l-7.6 24q-9.6 23.7-19.5 22.3-9.9-1.4-.7-31.3L37 84m16-33q3.7-12.6 8.9-24.6 10.4-24 17.8-21.1 7.4 2.9 1.3 29.9-1.05 4.7-2.3 9.35-2.28 8.58-5.2 16.95"/></svg>