<svg xmlns="http://www.w3.org/2000/svg" preserveAspectRatio="none" viewBox="0 0 161 43"><defs/><path fill="#B9A5E2" d="M153.7 23.35l5.25-5.05h-6.85l-4.2 4.8V12.75h-5.65V32.8h5.65v-3.75L150 27l2.95 5.8h6.3l-5.55-9.45m-65.25-1.2q1.4-.5 2.15-1.35 1.1-1.3 1.1-3.05 0-2.1-1.55-3.55-1.55-1.45-4.45-1.45H74.1V32.8h10.7q.7 0 2.8-.25 1.55-.25 2.35-.7 1.25-.7 1.95-1.95.75-1.25.75-2.8 0-1.9-1-3.15-1.05-1.3-3.2-1.8m-3.35-2q-.6.45-2.05.45h-2.7v-3.8h2.75q1.4 0 2 .5.55.5.55 1.4 0 .9-.55 1.45m.7 4.85q.65.5.65 1.4 0 .95-.65 1.55-.7.55-2.3.55h-3.15v-4.05h3.15q1.65 0 2.3.55M2.65 12.75v4.95h6.3v15.1h6.2V17.7h6.3v-4.95H2.65z"/><path fill="#D1C1F2" d="M125.15 19.9q-.95.9-1.5 2-.8 1.45-.8 3.7 0 2.15.65 3.45.6 1.3 1.75 2.25 1.1.95 2.65 1.4 1.5.45 3.8.45 2.4 0 3.95-.7 1.55-.65 2.55-1.85 1-1.25 1.45-2.9l-5.3-.6q-.35 1.15-1.1 1.75-.75.55-1.85.55-1.3 0-2.15-.95-.85-.9-.85-2.7 0-2 .85-3t2.25-1q1.1 0 1.75.5.65.45.9 1.4l5.2-.7q-.75-2.45-2.6-3.75-1.85-1.25-5.45-1.25-2.5 0-4.15.65-1 .45-2 1.3M95.7 12.75V32.8h5.6V12.75h-5.6m-56.65 8.9q-.95-1.8-2.75-2.75t-4.9-.95q-3.85 0-6.05 2.1-2.15 2.1-2.15 5.5 0 2.4 1.1 4.2 1.05 1.75 2.7 2.55 1.65.85 4.55.85 3.3 0 5.1-.95 1.8-.95 3.05-3.15l-5.5-.5q-.5.65-.95.9-.75.4-1.6.4-1.25 0-2.1-.95-.55-.65-.7-2H40v-.6q0-2.9-.95-4.65m-10.2 2.6q.15-1.3.65-1.95.8-1.05 2.1-1.05 1.15 0 1.9.7.7.7.85 2.3h-5.5z"/><path fill="#E7DDFF" d="M119.05 20.5q-2.25-2.55-6.6-2.55-3.8 0-6.05 2.15t-2.25 5.5q0 3.55 2.65 5.75 2.15 1.8 5.65 1.8 3.95 0 6.15-2.15 2.25-2.15 2.25-5.5 0-3-1.8-5m-6.5 1.3q1.15 0 1.9.9.8.95.8 2.8 0 2.05-.8 2.95-.75.9-1.95.9t-2-.9q-.75-.95-.75-2.9 0-1.9.75-2.85.8-.9 2.05-.9M68 22.35h3.05V18.3H68v-5.55l-5.6 2.85v2.7h-2.05v4.05h2.05v5.1q0 2.45.5 3.55.45 1.05 1.45 1.6t3.05.55q1.8 0 3.85-.45l-.4-3.85q-1.1.35-1.7.35-.7 0-1-.45-.15-.3-.15-1.25v-5.15M47.95 18.3h-6.6l5 6.9-5.3 7.6h6.05l3.15-4.7 2.7 4.7h6.5l-5.35-7.6 4.95-6.9h-6.1l-2.7 4.05-2.3-4.05z"/></svg>