<?xml version="1.0" encoding="utf-8"?>
<!-- Generator: Adobe Illustrator 19.0.0, SVG Export Plug-In . SVG Version: 6.00 Build 0)  -->
<svg version="1.1" id="Layer_1" xmlns="http://www.w3.org/2000/svg" xmlns:xlink="http://www.w3.org/1999/xlink" x="0px" y="0px"
	 viewBox="0 0 595.6 595.6" style="enable-background:new 0 0 595.6 595.6;" xml:space="preserve">
<style type="text/css">
	.st0{fill:#010101;}
</style>
<g id="XMLID_330_">
	<g id="XMLID_334_">
		<path id="XMLID_377_" class="st0" d="M563.5,285.9c-1.1-1.4-27.8-34.8-73.5-68.4c-61.1-44.9-127.5-68.6-192.2-68.6
			c-64.6,0-131.1,23.7-192.2,68.6c-45.7,33.6-72.4,67-73.5,68.4l-9.4,12l9.5,12c1.1,1.4,27.8,34.8,73.5,68.4
			c61.1,44.9,127.5,68.6,192.2,68.6c64.6,0,131.1-23.7,192.2-68.6c45.7-33.6,72.4-67,73.5-68.4l9.5-12L563.5,285.9z M297.8,402.2
			c-57.5,0-104.4-46.8-104.4-104.4c0-9,1.1-17.8,3.3-26.1l-23.8-4c-2.3,9.7-3.6,19.8-3.6,30.1c0,37.2,15.9,70.7,41.2,94.2
			c-32.6-12-60.3-28.9-81.2-44.2c-25.9-18.9-45.3-38.1-56.4-50c11.1-11.9,30.5-31,56.4-50c20.9-15.3,48.6-32.2,81.2-44.2l16,18
			c18.7-17.5,43.7-28.2,71.3-28.2c57.5,0,104.4,46.8,104.4,104.4S355.3,402.2,297.8,402.2z M466.3,347.8
			c-20.9,15.3-48.6,32.2-81.2,44.2c25.3-23.5,41.2-57,41.2-94.2s-15.9-70.7-41.2-94.2c32.6,12,60.3,28.9,81.2,44.2
			c25.9,18.9,45.3,38.1,56.4,50C511.6,309.7,492.2,328.8,466.3,347.8z"/>
		<path id="XMLID_376_" class="st0" d="M231.4,277.5c-2,6.4-3,13.2-3,20.3c0,38.3,31.1,69.4,69.4,69.4c38.3,0,69.4-31.1,69.4-69.4
			s-31.1-69.4-69.4-69.4c-18.7,0-35.6,7.4-48.1,19.4l34.2,38.6L231.4,277.5z"/>
	</g>
</g>
</svg>
